<svg width="115" height="115" viewBox="0 0 115 115" fill="none" xmlns="http://www.w3.org/2000/svg">
<circle opacity="0.25" cx="57.3096" cy="57.0986" r="57.0479" fill="url(#paint0_linear)"/>
<path d="M49.2744 49.4385C51.488 47.2249 54.1572 46.1182 57.2822 46.1182C60.4072 46.1182 63.0439 47.2249 65.1924 49.4385C67.4059 51.5869 68.5127 54.2236 68.5127 57.3486C68.5127 60.4736 67.4059 63.1429 65.1924 65.3564C63.0439 67.5049 60.4072 68.5791 57.2822 68.5791C54.1572 68.5791 51.488 67.5049 49.2744 65.3564C47.126 63.1429 46.0518 60.4736 46.0518 57.3486C46.0518 54.2236 47.126 51.5869 49.2744 49.4385ZM52.1064 62.5244C53.5387 63.9567 55.264 64.6729 57.2822 64.6729C59.3005 64.6729 61.0257 63.9567 62.458 62.5244C63.8903 61.0921 64.6064 59.3669 64.6064 57.3486C64.6064 55.3304 63.8903 53.6051 62.458 52.1729C61.0257 50.7406 59.3005 50.0244 57.2822 50.0244C55.264 50.0244 53.5387 50.7406 52.1064 52.1729C50.6742 53.6051 49.958 55.3304 49.958 57.3486C49.958 59.3669 50.6742 61.0921 52.1064 62.5244ZM70.7588 43.8721C71.2796 44.3278 71.54 44.9137 71.54 45.6299C71.54 46.346 71.2796 46.9645 70.7588 47.4854C70.3031 48.0062 69.7171 48.2666 69.001 48.2666C68.2848 48.2666 67.6663 48.0062 67.1455 47.4854C66.6247 46.9645 66.3643 46.346 66.3643 45.6299C66.3643 44.9137 66.6247 44.3278 67.1455 43.8721C67.6663 43.3512 68.2848 43.0908 69.001 43.0908C69.7171 43.0908 70.3031 43.3512 70.7588 43.8721ZM79.0596 48.3643C79.1247 50.1221 79.1572 53.1169 79.1572 57.3486C79.1572 61.5804 79.1247 64.5752 79.0596 66.333C78.8643 70.3044 77.6598 73.3968 75.4463 75.6104C73.2979 77.7588 70.238 78.8981 66.2666 79.0283C64.5088 79.1585 61.514 79.2236 57.2822 79.2236C53.0505 79.2236 50.0557 79.1585 48.2979 79.0283C44.3265 78.833 41.2666 77.6611 39.1182 75.5127C38.2718 74.7314 37.5882 73.82 37.0674 72.7783C36.5465 71.7367 36.1559 70.7275 35.8955 69.751C35.7002 68.7744 35.6025 67.6351 35.6025 66.333C35.4723 64.5752 35.4072 61.5804 35.4072 57.3486C35.4072 53.1169 35.4723 50.0895 35.6025 48.2666C35.7979 44.3604 36.9697 41.333 39.1182 39.1846C41.2666 36.971 44.3265 35.7666 48.2979 35.5713C50.0557 35.5062 53.0505 35.4736 57.2822 35.4736C61.514 35.4736 64.5088 35.5062 66.2666 35.5713C70.238 35.7666 73.2979 36.971 75.4463 39.1846C77.6598 41.333 78.8643 44.3929 79.0596 48.3643ZM74.3721 70.2393C74.5674 69.7184 74.7301 69.0674 74.8604 68.2861C74.9906 67.4398 75.0882 66.4632 75.1533 65.3564C75.2184 64.1846 75.251 63.2406 75.251 62.5244C75.251 61.8083 75.251 60.7992 75.251 59.4971C75.251 58.195 75.251 57.4788 75.251 57.3486C75.251 57.1533 75.251 56.4372 75.251 55.2002C75.251 53.8981 75.251 52.889 75.251 52.1729C75.251 51.4567 75.2184 50.5452 75.1533 49.4385C75.0882 48.2666 74.9906 47.29 74.8604 46.5088C74.7301 45.6624 74.5674 44.9788 74.3721 44.458C73.5908 42.4398 72.1911 41.04 70.1729 40.2588C69.652 40.0635 68.9684 39.9007 68.1221 39.7705C67.3408 39.6403 66.3643 39.5426 65.1924 39.4775C64.0856 39.4124 63.1742 39.3799 62.458 39.3799C61.807 39.3799 60.7979 39.3799 59.4307 39.3799C58.1286 39.3799 57.4124 39.3799 57.2822 39.3799C57.152 39.3799 56.4359 39.3799 55.1338 39.3799C53.8317 39.3799 52.8226 39.3799 52.1064 39.3799C51.3903 39.3799 50.4463 39.4124 49.2744 39.4775C48.1676 39.5426 47.1911 39.6403 46.3447 39.7705C45.5635 39.9007 44.9124 40.0635 44.3916 40.2588C42.3734 41.04 40.9736 42.4398 40.1924 44.458C39.9971 44.9788 39.8343 45.6624 39.7041 46.5088C39.5739 47.29 39.4762 48.2666 39.4111 49.4385C39.346 50.5452 39.3135 51.4567 39.3135 52.1729C39.3135 52.8239 39.3135 53.833 39.3135 55.2002C39.3135 56.5023 39.3135 57.2184 39.3135 57.3486C39.3135 57.609 39.3135 58.2275 39.3135 59.2041C39.3135 60.1156 39.3135 60.8968 39.3135 61.5479C39.3135 62.1338 39.3135 62.915 39.3135 63.8916C39.3786 64.8682 39.4437 65.7145 39.5088 66.4307C39.5739 67.0817 39.6715 67.7653 39.8018 68.4814C39.932 69.1976 40.0622 69.7835 40.1924 70.2393C41.0387 72.2575 42.4385 73.6572 44.3916 74.4385C44.9124 74.6338 45.5635 74.7965 46.3447 74.9268C47.1911 75.057 48.1676 75.1546 49.2744 75.2197C50.4463 75.2848 51.3577 75.3174 52.0088 75.3174C52.7249 75.3174 53.734 75.3174 55.0361 75.3174C56.4033 75.3174 57.152 75.3174 57.2822 75.3174C57.4775 75.3174 58.1937 75.3174 59.4307 75.3174C60.7327 75.3174 61.7419 75.3174 62.458 75.3174C63.1742 75.3174 64.0856 75.2848 65.1924 75.2197C66.3643 75.1546 67.3408 75.057 68.1221 74.9268C68.9684 74.7965 69.652 74.6338 70.1729 74.4385C72.1911 73.5921 73.5908 72.1924 74.3721 70.2393Z" fill="url(#paint1_linear)"/>
<defs>
<linearGradient id="paint0_linear" x1="33.7456" y1="105.24" x2="80.891" y2="28.3063" gradientUnits="userSpaceOnUse">
<stop stop-color="#FB6E37"/>
<stop offset="1" stop-color="#FB3582" stop-opacity="0"/>
</linearGradient>
<linearGradient id="paint1_linear" x1="87.3488" y1="18.2587" x2="35.3096" y2="78.7853" gradientUnits="userSpaceOnUse">
<stop stop-color="#FB4C4C"/>
<stop offset="0.169792" stop-color="#FB4A50"/>
<stop offset="0.466667" stop-color="#FB21B1"/>
<stop offset="1" stop-color="#FB7D21"/>
</linearGradient>
</defs>
</svg>
