<svg width="95" height="95" viewBox="0 0 95 95" fill="none" xmlns="http://www.w3.org/2000/svg">
<circle opacity="0.25" cx="47.2009" cy="47.4856" r="46.9382" fill="url(#paint0_linear)"/>
<path d="M65.042 37.9702C65.1006 38.2046 65.1299 38.5854 65.1299 39.1128C65.1299 42.2183 64.5439 45.3237 63.3721 48.4292C62.2002 51.4761 60.5303 54.2886 58.3623 56.8667C56.2529 59.3862 53.499 61.437 50.1006 63.019C46.7021 64.6011 42.9521 65.3921 38.8506 65.3921C33.6943 65.3921 28.9775 64.0151 24.7002 61.2612C25.3447 61.3198 26.0771 61.3491 26.8975 61.3491C31.1748 61.3491 35.0127 60.0308 38.4111 57.394C36.3604 57.394 34.5439 56.8081 32.9619 55.6362C31.4385 54.4058 30.3838 52.8823 29.7979 51.0659C30.3838 51.1245 30.9404 51.1538 31.4678 51.1538C32.2881 51.1538 33.1084 51.0659 33.9287 50.8901C32.5225 50.5972 31.2627 50.0112 30.1494 49.1323C29.0361 48.2534 28.1572 47.1987 27.5127 45.9683C26.8682 44.6792 26.5459 43.3022 26.5459 41.8374V41.6616C27.835 42.4233 29.2119 42.8335 30.6768 42.8921C27.9229 41.0171 26.5459 38.439 26.5459 35.1577C26.5459 33.5171 26.9854 31.9644 27.8643 30.4995C30.1494 33.3706 32.9326 35.6558 36.2139 37.355C39.5537 39.0542 43.0986 39.9917 46.8486 40.1675C46.7314 39.4644 46.6729 38.7612 46.6729 38.0581C46.6729 35.5386 47.5518 33.3706 49.3096 31.5542C51.126 29.7378 53.2939 28.8296 55.8135 28.8296C58.5088 28.8296 60.7646 29.7964 62.5811 31.73C64.6904 31.3198 66.6533 30.5874 68.4697 29.5327C67.7666 31.7007 66.4189 33.3999 64.4268 34.6304C66.1846 34.396 67.9424 33.8979 69.7002 33.1362C68.4111 35.0112 66.8584 36.6226 65.042 37.9702Z" fill="#21C5FB"/>
<defs>
<linearGradient id="paint0_linear" x1="30.0271" y1="83.0101" x2="85.1699" y2="24.8867" gradientUnits="userSpaceOnUse">
<stop stop-color="#4AD0FC"/>
<stop offset="1" stop-color="#4CD0FC" stop-opacity="0"/>
</linearGradient>
</defs>
</svg>
