<svg width="80" height="62" viewBox="0 0 80 62" fill="none" xmlns="http://www.w3.org/2000/svg">
<g clip-path="url(#clip0)">
<path d="M14.8761 61.5234V57.4747C14.8761 55.9227 13.9267 54.9106 12.2993 54.9106C11.4855 54.9106 10.604 55.1805 9.99369 56.0577C9.51901 55.3154 8.84089 54.9106 7.82372 54.9106C7.14561 54.9106 6.4675 55.113 5.92502 55.8553V55.0455H4.50098V61.5234H5.92502V57.9471C5.92502 56.7999 6.53531 56.2601 7.48466 56.2601C8.43402 56.2601 8.9087 56.8674 8.9087 57.9471V61.5234H10.3327V57.9471C10.3327 56.7999 11.0108 56.2601 11.8924 56.2601C12.8417 56.2601 13.3164 56.8674 13.3164 57.9471V61.5234H14.8761ZM35.9654 55.0455H33.6598V53.0887H32.2357V55.0455H30.9473V56.3276H32.2357V59.2966C32.2357 60.7811 32.846 61.6584 34.4735 61.6584C35.0838 61.6584 35.7619 61.4559 36.2366 61.186L35.8297 59.9714C35.4229 60.2413 34.9482 60.3088 34.6091 60.3088C33.931 60.3088 33.6598 59.9039 33.6598 59.2292V56.3276H35.9654V55.0455ZM48.0357 54.9106C47.222 54.9106 46.6795 55.3155 46.3405 55.8553V55.0455H44.9164V61.5234H46.3405V57.8796C46.3405 56.8 46.8151 56.1927 47.6967 56.1927C47.9679 56.1927 48.307 56.2601 48.5782 56.3276L48.9851 54.9781C48.7139 54.9106 48.307 54.9106 48.0357 54.9106ZM29.7945 55.5853C29.1164 55.113 28.1671 54.9106 27.1499 54.9106C25.5224 54.9106 24.4375 55.7203 24.4375 57.0024C24.4375 58.082 25.2512 58.6893 26.6752 58.8918L27.3533 58.9592C28.0993 59.0942 28.5061 59.2966 28.5061 59.634C28.5061 60.1064 27.9636 60.4438 27.0143 60.4438C26.0649 60.4438 25.319 60.1064 24.8443 59.769L24.1662 60.8486C24.9121 61.3885 25.9293 61.6584 26.9465 61.6584C28.8452 61.6584 29.9302 60.7812 29.9302 59.5666C29.9302 58.4194 29.0486 57.8121 27.6924 57.6097L27.0143 57.5422C26.404 57.4747 25.9293 57.3398 25.9293 56.9349C25.9293 56.4626 26.404 56.1927 27.1499 56.1927C27.9636 56.1927 28.7774 56.53 29.1842 56.7325L29.7945 55.5853ZM67.6332 54.9106C66.8195 54.9106 66.277 55.3155 65.9379 55.8553V55.0455H64.5139V61.5234H65.9379V57.8796C65.9379 56.8 66.4126 56.1927 67.2941 56.1927C67.5654 56.1927 67.9044 56.2601 68.1757 56.3276L68.5825 54.9781C68.3113 54.9106 67.9044 54.9106 67.6332 54.9106ZM49.4598 58.2845C49.4598 60.2413 50.816 61.6584 52.9182 61.6584C53.8675 61.6584 54.5456 61.4559 55.2237 60.9161L54.5456 59.769C54.0031 60.1738 53.4606 60.3763 52.8503 60.3763C51.6975 60.3763 50.8838 59.5665 50.8838 58.2845C50.8838 57.0699 51.6975 56.2601 52.8503 56.1927C53.4606 56.1927 54.0031 56.3951 54.5456 56.8L55.2237 55.6528C54.5456 55.113 53.8675 54.9106 52.9182 54.9106C50.816 54.9106 49.4598 56.3276 49.4598 58.2845ZM62.6151 58.2845V55.0455H61.1911V55.8553C60.7164 55.248 60.0383 54.9106 59.1568 54.9106C57.3259 54.9106 55.9018 56.3276 55.9018 58.2845C55.9018 60.2413 57.3259 61.6584 59.1568 61.6584C60.1061 61.6584 60.7843 61.321 61.1911 60.7137V61.5234H62.6151V58.2845ZM57.3937 58.2845C57.3937 57.1373 58.1396 56.1927 59.3602 56.1927C60.513 56.1927 61.3267 57.0699 61.3267 58.2845C61.3267 59.4316 60.513 60.3763 59.3602 60.3763C58.1396 60.3088 57.3937 59.4316 57.3937 58.2845ZM40.3731 54.9106C38.4744 54.9106 37.1182 56.2601 37.1182 58.2845C37.1182 60.3088 38.4744 61.6584 40.4409 61.6584C41.3903 61.6584 42.3396 61.3884 43.0855 60.7811L42.4074 59.769C41.8649 60.1738 41.1868 60.4438 40.5087 60.4438C39.6272 60.4438 38.7456 60.0389 38.5422 58.8918H43.3568C43.3568 58.6893 43.3568 58.5544 43.3568 58.3519C43.4246 56.2601 42.204 54.9106 40.3731 54.9106ZM40.3731 56.1252C41.2546 56.1252 41.8649 56.665 42.0005 57.6772H38.61C38.7456 56.8 39.3559 56.1252 40.3731 56.1252ZM75.7027 58.2845V52.4814H74.2787V55.8553C73.804 55.248 73.1259 54.9106 72.2443 54.9106C70.4134 54.9106 68.9894 56.3276 68.9894 58.2845C68.9894 60.2413 70.4134 61.6584 72.2443 61.6584C73.1937 61.6584 73.8718 61.321 74.2787 60.7137V61.5234H75.7027V58.2845ZM70.4812 58.2845C70.4812 57.1373 71.2272 56.1927 72.4478 56.1927C73.6005 56.1927 74.4143 57.0699 74.4143 58.2845C74.4143 59.4316 73.6005 60.3763 72.4478 60.3763C71.2272 60.3088 70.4812 59.4316 70.4812 58.2845ZM22.8778 58.2845V55.0455H21.4538V55.8553C20.9791 55.248 20.301 54.9106 19.4194 54.9106C17.5885 54.9106 16.1645 56.3276 16.1645 58.2845C16.1645 60.2413 17.5885 61.6584 19.4194 61.6584C20.3688 61.6584 21.0469 61.321 21.4538 60.7137V61.5234H22.8778V58.2845ZM17.5885 58.2845C17.5885 57.1373 18.3344 56.1927 19.555 56.1927C20.7078 56.1927 21.5216 57.0699 21.5216 58.2845C21.5216 59.4316 20.7078 60.3763 19.555 60.3763C18.3344 60.3088 17.5885 59.4316 17.5885 58.2845Z" fill="black"/>
<path d="M50.6798 5.85352H29.3193V44.046H50.6798V5.85352Z" fill="#FF5F00"/>
<path d="M30.676 24.9502C30.676 17.1903 34.3378 10.3075 39.9661 5.854C35.8296 2.61507 30.6082 0.658203 24.912 0.658203C11.4176 0.658203 0.5 11.5221 0.5 24.9502C0.5 38.3783 11.4176 49.2423 24.912 49.2423C30.6082 49.2423 35.8296 47.2854 39.9661 44.0465C34.3378 39.6604 30.676 32.7102 30.676 24.9502Z" fill="#EB001B"/>
<path d="M79.5002 24.9502C79.5002 38.3783 68.5827 49.2423 55.0882 49.2423C49.3921 49.2423 44.1707 47.2854 40.0342 44.0465C45.7303 39.5929 49.3243 32.7102 49.3243 24.9502C49.3243 17.1903 45.6625 10.3075 40.0342 5.854C44.1707 2.61507 49.3921 0.658203 55.0882 0.658203C68.5827 0.658203 79.5002 11.5896 79.5002 24.9502Z" fill="#F79E1B"/>
</g>
<defs>
<clipPath id="clip0">
<rect width="79" height="61" fill="white" transform="translate(0.5 0.658203)"/>
</clipPath>
</defs>
</svg>
