<svg width="182" height="46" viewBox="0 0 182 46" fill="none" xmlns="http://www.w3.org/2000/svg">
<g clip-path="url(#clip0)">
<g filter="url(#filter0_d)">
<path fill-rule="evenodd" clip-rule="evenodd" d="M43.7937 22.9162C43.7937 12.0525 35.0206 3.24609 24.1985 3.24609C13.3766 3.24609 4.60352 12.0525 4.60352 22.9162C4.60352 33.7798 13.3766 42.5863 24.1985 42.5863C35.0206 42.5863 43.7937 33.7798 43.7937 22.9162ZM21.7042 16.5397H23.3642C23.5376 16.5235 23.7111 16.5158 23.8889 16.5078C24.0516 16.5006 24.2178 16.4932 24.3907 16.479C24.3607 16.934 24.4509 17.4796 24.6624 18.1157C24.9039 18.7521 25.2062 19.4482 25.5378 20.1755L28.103 25.3273C28.5875 26.3647 29.08 27.4146 29.6143 28.4264H29.6745C30.2698 27.4489 30.7297 26.4681 31.2082 25.4477C31.2695 25.3171 31.331 25.1858 31.3932 25.0539L33.5069 20.7821C33.8064 20.1621 34.0709 19.5998 34.3077 19.0961C34.4528 18.7876 34.5875 18.5011 34.7136 18.2369C34.9854 17.5701 35.1666 16.9932 35.1969 16.479C35.3691 16.492 35.5241 16.4994 35.667 16.5061C35.8485 16.5147 36.0104 16.5223 36.1628 16.5397H37.7926C37.9655 16.5235 38.1467 16.5158 38.3319 16.5079C38.5021 16.5006 38.6757 16.4932 38.8493 16.479C38.9095 16.5397 38.9401 16.6302 38.9401 16.7217C38.9697 16.873 38.9401 16.9638 38.8793 17.0245L38.4259 17.0552C37.943 17.115 37.5814 17.2068 37.3695 17.328C37.159 17.4796 37.0083 17.7217 36.9468 17.9938C36.8862 18.2973 36.8566 18.691 36.8566 19.2062V22.0859C36.8705 22.5956 36.8911 23.1185 36.9123 23.6549C36.9363 24.2655 36.9611 24.8936 36.9774 25.5396C37.0067 26.6694 37.0487 27.8149 37.1106 28.9422C37.1106 29.3058 37.1408 29.6407 37.1717 29.9131C37.202 30.1559 37.3234 30.3381 37.4728 30.4894C37.6247 30.6409 37.8665 30.7321 38.1991 30.7634L38.9248 30.8239C38.985 30.9147 39.015 31.0052 38.985 31.1273C38.985 31.2486 38.9554 31.3394 38.8646 31.4001C38.41 31.3701 37.9567 31.3394 37.504 31.3087H34.9035C34.6354 31.3268 34.357 31.345 34.0807 31.363C33.8895 31.3755 33.6994 31.3879 33.5142 31.4001C33.4231 31.3087 33.3925 31.2185 33.3925 31.1273C33.3626 30.9758 33.3925 30.8837 33.4531 30.8239L34.1182 30.7634C34.511 30.7321 34.7525 30.672 34.8742 30.5207C35.0816 30.4148 35.1424 30.2089 35.1666 29.9921C35.1969 29.719 35.2262 29.357 35.1969 28.8728L35.1357 19.509H35.1051C35.0453 19.6001 34.9249 19.8422 34.7741 20.2061C34.5926 20.5394 34.3817 20.9334 34.1702 21.3574C34.0069 21.6614 33.88 21.9476 33.761 22.2162C33.726 22.2952 33.6917 22.3726 33.6573 22.4485L31.6952 26.3573C31.0217 27.5962 30.4254 28.8265 29.8535 30.1146C29.6353 30.5514 29.4394 31.0084 29.2517 31.4599C29.1351 31.5754 28.9446 31.5783 28.8284 31.4599C28.8095 31.395 28.6404 30.8367 28.6162 30.8367C28.5225 30.5821 28.412 30.3116 28.2842 30.0228C28.118 29.6485 27.9383 29.2744 27.7538 28.8903C27.6696 28.7149 27.5844 28.5375 27.499 28.357C27.2581 27.8118 27.0476 27.3573 26.8653 26.9925L24.8427 22.6609C24.6101 22.1629 24.3771 21.6369 24.1436 21.1096L24.119 21.0539C23.9077 20.4783 23.6659 19.9631 23.4241 19.4482H23.3642C23.3427 19.9089 23.3219 20.37 23.3011 20.8308C23.2918 21.0366 23.2825 21.2423 23.2732 21.4479C23.258 21.7922 23.2341 22.1368 23.2105 22.4772C23.1884 22.7956 23.1666 23.1104 23.1524 23.4178C23.1228 24.1143 23.0925 24.9333 23.0622 25.8725C23.0417 26.5257 23.0298 27.1787 23.018 27.8316C23.0128 28.1178 23.0076 28.404 23.0017 28.6902C22.9925 29.1427 22.9963 29.8716 23.1747 30.3023C23.2199 30.4053 23.2808 30.4897 23.3566 30.5514C23.5073 30.672 23.7188 30.7321 23.9915 30.7634L24.8373 30.8239C24.9288 30.9147 24.9587 31.0052 24.9587 31.1273C24.9587 31.2486 24.8985 31.3394 24.8074 31.4001C24.4448 31.3701 24.0514 31.3394 23.5987 31.3087H21.2101C21.0351 31.3224 20.866 31.336 20.6977 31.3496C20.488 31.3666 20.2794 31.3835 20.0616 31.4001C19.9708 31.3087 19.9409 31.2185 19.9409 31.1273C19.9103 30.9758 19.9409 30.8837 20.0311 30.8239L20.5153 30.7634C20.8169 30.7321 21.0594 30.6409 21.2713 30.5514C21.4525 30.4593 21.6029 30.3074 21.694 30.065C22.0724 29.057 22.2071 25.7435 22.2698 24.1994C22.2723 24.1383 22.2747 24.0798 22.277 24.0245L22.2838 23.9192C22.3423 23.0168 22.3989 22.1432 22.4286 21.2963C22.4589 20.4175 22.4882 19.6606 22.5191 19.0245C22.549 18.5695 22.5191 18.2065 22.4589 17.9337C22.3977 17.6609 22.2474 17.4486 22.0368 17.328C21.8243 17.2362 21.4923 17.1451 21.0406 17.0552L20.6787 17.0245C20.6172 16.934 20.5873 16.8432 20.6172 16.7217C20.6475 16.6008 20.6787 16.5087 20.7689 16.479C20.9238 16.4928 21.0788 16.5002 21.2278 16.5074C21.3976 16.5155 21.5594 16.5232 21.7042 16.5397ZM10.8868 29.8194C10.9483 29.4171 10.9785 28.8296 10.9785 28.058L11.0043 25.8233C11.5587 25.9157 12.1738 25.9471 12.8511 25.9157V28.0797C12.8202 28.8505 12.8511 29.437 12.9123 29.8386C12.9683 30.2063 13.1018 30.4436 13.2882 30.5991C13.299 30.6077 13.3102 30.616 13.3213 30.624C13.5061 30.7788 13.8447 30.8715 14.3379 30.9035L14.9543 30.9652C15.0165 31.0263 15.047 31.12 15.047 31.2745C15.0165 31.3979 14.9846 31.4906 14.9231 31.5524L14.9097 31.5517C13.8975 31.504 12.9501 31.4593 11.9343 31.4593C10.9773 31.4593 10.1149 31.4929 9.1611 31.5524C8.99161 31.4401 8.98018 31.1152 9.12893 30.9652L9.59148 30.9035C10.3137 30.8536 10.826 30.5984 10.8868 29.8194ZM9.12768 17.0821C9.03526 16.9887 8.97348 16.8963 9.00375 16.7732C9.00375 16.6491 9.06585 16.5567 9.15762 16.4943C9.7428 16.4326 10.4198 16.4019 11.1585 16.3706C11.8967 16.3398 12.7275 16.3398 13.6511 16.3398C14.6045 16.3398 15.4357 16.4019 16.1435 16.525C16.882 16.6795 17.5284 16.9273 18.0511 17.2369C18.5746 17.5755 18.9747 18.0392 19.3136 18.6261C19.6516 19.2138 19.8364 19.8918 19.8667 20.6644C19.8364 21.3753 19.7137 21.9621 19.4981 22.4565C19.2206 22.9806 18.9128 23.3836 18.5746 23.6301C17.99 24.0324 17.4357 24.3724 16.882 24.6193C16.2971 24.8355 15.6507 25.02 14.9431 25.1137C13.5583 25.3289 12.0811 25.3609 10.5743 25.1745C9.65043 25.082 8.20476 24.8044 6.26562 24.4031C8.01967 24.5882 9.61952 24.6816 11.0968 24.7107C12.7896 24.7424 14.0512 24.6496 14.9431 24.4332C15.8667 24.217 16.5437 23.7852 17.0053 23.1972C17.5284 22.5182 17.7749 21.6842 17.7431 20.6964C17.7431 19.5835 17.4357 18.6871 16.8202 18.0392C16.1741 17.3904 15.2815 17.0821 14.1126 17.0511H14.1126C13.7128 17.0511 13.4044 17.0511 13.2197 17.0821C13.0662 17.1115 12.9429 17.2055 12.9123 17.2976C12.8511 17.4524 12.8202 17.6376 12.8511 17.8844V24.186C12.235 24.217 11.6198 24.217 11.0043 24.186V19.6142C11.0043 18.9666 10.9741 18.4713 10.9429 18.1316C10.9126 17.7924 10.8196 17.5755 10.666 17.4524C10.5125 17.2976 10.2659 17.2055 9.92792 17.1735L9.12768 17.0821Z" fill="#F01010"/>
<path d="M53.876 16.6156V29.7686H56.4737V25.447H58.789C60.0502 25.447 61.1232 25.0148 61.9891 24.1692C62.855 23.3237 63.2879 22.2714 63.2879 21.0312C63.2879 19.791 62.855 18.7388 61.9891 17.8933C61.1232 17.0477 60.0502 16.6156 58.789 16.6156H53.876ZM56.4737 23.0229V19.0395H58.789C59.8996 19.0395 60.7091 19.885 60.7091 21.0312C60.7091 22.1586 59.8996 23.0229 58.789 23.0229H56.4737Z" fill="black"/>
<path d="M73.39 26.0662C73.4465 25.7093 73.4841 25.3898 73.4841 25.0704C73.4841 23.6611 73.0323 22.4961 72.1288 21.5378C71.2441 20.5795 70.0958 20.1098 68.7216 20.1098C67.2722 20.1098 66.0675 20.5795 65.1451 21.5378C64.2227 22.4774 63.7521 23.6611 63.7521 25.0704C63.7521 26.4985 64.2227 27.6822 65.1639 28.6217C66.1051 29.5612 67.3475 30.031 68.9099 30.031C70.717 30.031 72.0911 29.3546 73.0135 28.0204L71.0558 26.8931C70.5852 27.5131 69.8699 27.8325 68.9475 27.8325C67.4981 27.8325 66.6134 27.2501 66.2933 26.0662H73.39ZM66.2557 24.1873C66.5381 22.9847 67.4228 22.2895 68.7216 22.2895C69.8323 22.2895 70.7735 22.9096 71.0558 24.1873H66.2557Z" fill="black"/>
<path d="M77.6068 20.3728H75.1785V29.7679H77.6068V25.2771C77.6068 24.3751 77.8892 23.7362 78.4727 23.3417C79.0563 22.947 79.7339 22.7967 80.468 22.8907V20.1849C79.188 20.1849 78.0586 20.7862 77.6068 21.9887V20.3728Z" fill="black"/>
<path d="M86.9518 16.3532C84.0152 16.1841 82.5282 17.6309 82.5282 20.2803V20.3743H81.1728V22.7042H82.5282V29.7693H84.9564V22.7042H86.9518V20.3743H84.9564V20.2803C84.9564 19.1153 85.6153 18.5891 86.9518 18.6831V16.3532Z" fill="black"/>
<path d="M96.8647 26.0662C96.9212 25.7093 96.9589 25.3898 96.9589 25.0704C96.9589 23.6611 96.5071 22.4961 95.6035 21.5378C94.7188 20.5795 93.5706 20.1098 92.1964 20.1098C90.747 20.1098 89.5422 20.5795 88.6199 21.5378C87.6975 22.4774 87.2269 23.6611 87.2269 25.0704C87.2269 26.4985 87.6975 27.6822 88.6387 28.6217C89.5799 29.5612 90.8223 30.031 92.3846 30.031C94.1917 30.031 95.5659 29.3546 96.4883 28.0204L94.5306 26.8931C94.06 27.5131 93.3447 27.8325 92.4223 27.8325C90.9729 27.8325 90.0881 27.2501 89.7681 26.0662H96.8647ZM89.7305 24.1873C90.0128 22.9847 90.8976 22.2895 92.1964 22.2895C93.307 22.2895 94.2482 22.9096 94.5306 24.1873H89.7305Z" fill="black"/>
<path d="M103.061 30.031C104.887 30.031 106.487 29.0727 107.315 27.5883L105.207 26.3857C104.83 27.1561 104.021 27.6259 103.042 27.6259C102.308 27.6259 101.705 27.3815 101.235 26.9119C100.764 26.4232 100.519 25.8031 100.519 25.0704C100.519 23.5672 101.592 22.4961 103.042 22.4961C104.002 22.4961 104.811 22.9847 105.188 23.7551L107.277 22.5337C106.505 21.0493 104.887 20.1098 103.061 20.1098C101.649 20.1098 100.463 20.5795 99.5029 21.5378C98.5617 22.4961 98.0911 23.6611 98.0911 25.0704C98.0911 26.4797 98.5617 27.6446 99.5029 28.6029C100.463 29.5612 101.649 30.031 103.061 30.031Z" fill="black"/>
<path d="M113.983 20.3737H111.855V17.7431L109.427 18.4758V20.3737H107.79V22.7036H109.427V26.612C109.427 29.1863 110.651 30.1446 113.983 29.7687V27.5703C112.59 27.6454 111.855 27.6267 111.855 26.612V22.7036H113.983V20.3737Z" fill="black"/>
<path d="M130.882 16.6156L127.117 22.8352L123.334 16.6156H120.661V29.7686H123.258V21.2568L126.967 27.3448H127.268L130.976 21.238V29.7686H133.555V16.6156H130.882Z" fill="black"/>
<path d="M143.917 28.6029C144.877 27.6446 145.366 26.4609 145.366 25.0704C145.366 23.68 144.877 22.5149 143.917 21.5566C142.956 20.5983 141.771 20.1098 140.378 20.1098C138.985 20.1098 137.799 20.5983 136.839 21.5566C135.879 22.5149 135.408 23.68 135.408 25.0704C135.408 26.4609 135.879 27.6446 136.839 28.6029C137.799 29.5612 138.985 30.031 140.378 30.031C141.771 30.031 142.956 29.5612 143.917 28.6029ZM138.552 26.9307C138.081 26.4421 137.836 25.822 137.836 25.0704C137.836 24.3189 138.081 23.6988 138.552 23.2101C139.041 22.7217 139.643 22.4774 140.378 22.4774C141.112 22.4774 141.714 22.7217 142.204 23.2101C142.693 23.6988 142.938 24.3189 142.938 25.0704C142.938 25.822 142.693 26.4421 142.204 26.9307C141.714 27.4192 141.112 27.6634 140.378 27.6634C139.643 27.6634 139.041 27.4192 138.552 26.9307Z" fill="black"/>
<path d="M152.307 20.1098C151.026 20.1098 150.085 20.542 149.502 21.4252V20.3729H147.073V29.7679H149.502V24.6946C149.502 23.135 150.311 22.3646 151.572 22.3646C152.702 22.3646 153.436 23.041 153.436 24.3001V29.7679H155.864V23.9993C155.864 22.778 155.525 21.8385 154.848 21.1433C154.189 20.448 153.342 20.1098 152.307 20.1098Z" fill="black"/>
<path d="M167.087 26.0662C167.143 25.7093 167.181 25.3898 167.181 25.0704C167.181 23.6611 166.729 22.4961 165.826 21.5378C164.941 20.5795 163.793 20.1098 162.419 20.1098C160.969 20.1098 159.764 20.5795 158.842 21.5378C157.92 22.4774 157.449 23.6611 157.449 25.0704C157.449 26.4985 157.92 27.6822 158.861 28.6217C159.802 29.5612 161.044 30.031 162.607 30.031C164.414 30.031 165.788 29.3546 166.71 28.0204L164.753 26.8931C164.282 27.5131 163.567 27.8325 162.644 27.8325C161.195 27.8325 160.31 27.2501 159.99 26.0662H167.087ZM159.953 24.1873C160.235 22.9847 161.12 22.2895 162.419 22.2895C163.529 22.2895 164.47 22.9096 164.753 24.1873H159.953Z" fill="black"/>
<path d="M172.555 26.6867L170.108 20.3733H167.454L171.313 29.4678C170.861 30.7455 170.146 31.2904 168.847 31.2716V33.5264C171.256 33.658 172.837 32.4741 173.816 29.7683L177.242 20.3733H174.645L172.555 26.6867Z" fill="black"/>
</g>
</g>
<defs>
<filter id="filter0_d" x="-207" y="-127" width="601" height="460" filterUnits="userSpaceOnUse" color-interpolation-filters="sRGB">
<feFlood flood-opacity="0" result="BackgroundImageFix"/>
<feColorMatrix in="SourceAlpha" type="matrix" values="0 0 0 0 0 0 0 0 0 0 0 0 0 0 0 0 0 0 127 0" result="hardAlpha"/>
<feMorphology radius="200" operator="dilate" in="SourceAlpha" result="effect1_dropShadow"/>
<feOffset dy="80"/>
<feGaussianBlur stdDeviation="5"/>
<feColorMatrix type="matrix" values="0 0 0 0 0.925 0 0 0 0 0.899563 0 0 0 0 0.899563 0 0 0 0.27 0"/>
<feBlend mode="normal" in2="BackgroundImageFix" result="effect1_dropShadow"/>
<feBlend mode="normal" in="SourceGraphic" in2="effect1_dropShadow" result="shape"/>
</filter>
<clipPath id="clip0">
<rect width="182" height="46" rx="10" fill="white"/>
</clipPath>
</defs>
</svg>
