<svg width="127" height="28" viewBox="0 0 127 28" fill="none" xmlns="http://www.w3.org/2000/svg">
<g clip-path="url(#clip0)">
<path fill-rule="evenodd" clip-rule="evenodd" d="M4.83956 18.2954L4.84056 21.2531C4.84256 23.4372 4.84456 25.9147 4.83956 26.4977C4.83956 27.0317 4.57856 27.2893 4.04856 27.2982C2.99656 27.3072 1.93556 27.3072 0.883563 27.2982C0.343562 27.2982 0.101562 27.0407 0.101562 26.4977V2.13044C0.101562 1.60539 0.334563 1.3758 0.864563 1.3758C1.77156 1.3758 2.67856 1.3718 3.58456 1.36781H3.58756C5.75156 1.35783 7.91556 1.34785 10.0796 1.39377C14.4996 1.4866 17.7866 4.73177 17.9816 9.09992C18.0836 11.4258 17.6376 13.5879 16.1116 15.4266C14.5656 17.2932 12.5086 18.1946 10.0986 18.2864C8.77056 18.3413 6.06856 18.3094 5.14456 18.2984L4.83956 18.2954ZM4.85756 14.4244L6.31456 14.4224C7.26456 14.4204 8.19956 14.4184 9.13956 14.4244C10.3396 14.4344 11.3176 13.9732 12.0616 13.0638C13.2156 11.6564 13.5136 10.0392 13.0486 8.30934C12.5186 6.34088 11.0106 5.23786 8.96256 5.23786H4.86756C4.85756 8.31832 4.85756 11.3439 4.85756 14.4244ZM34.1456 26.4428C34.3876 27.0317 34.7696 27.3621 35.4576 27.3072C35.8866 27.2703 37.6916 27.2982 38.1576 27.3072C39.0326 27.3072 39.3116 26.893 38.9486 26.1024C35.2666 18.0808 31.5866 10.0562 27.9096 2.02863C27.7056 1.57844 27.4256 1.41273 26.9416 1.42171C26.4766 1.4317 26.2716 1.68824 26.0946 2.06556C24.201 6.15932 22.305 10.252 20.4066 14.3435L20.1896 14.8127L20.1766 14.8406L19.8426 15.5623C17.5206 20.5713 15.4226 25.0972 14.9436 26.1403C14.5996 26.875 14.8886 27.2982 15.6976 27.2982H18.3976C19.2076 27.2982 19.4676 27.1325 19.7746 26.3969L20.1866 25.4246C20.5636 24.5382 20.9396 23.6518 21.3016 22.7554C21.4316 22.434 21.5896 22.2962 21.9716 22.2962C25.1916 22.3142 28.4016 22.3052 31.6216 22.2962H31.9316C32.2746 22.2962 32.4516 22.3781 32.5816 22.7095C32.9246 23.562 33.2846 24.4104 33.6446 25.2579L33.6546 25.2799L33.6816 25.3448L34.1466 26.4418L34.1456 26.4428ZM23.3116 18.3873H30.5906C29.3605 15.7198 28.1348 13.0502 26.9136 10.3786C25.7068 13.0454 24.5061 15.715 23.3116 18.3873ZM52.6566 1.97373C50.7761 4.73543 48.8867 7.49116 46.9886 10.2409C46.9306 10.161 46.2516 9.17378 45.3466 7.86014C43.9887 5.88676 42.6281 3.9153 41.2646 1.94578C41.1156 1.73416 40.8366 1.46763 40.6046 1.45865C39.3325 1.41088 38.0591 1.40456 36.7866 1.43968C36.2746 1.44966 36.0146 1.93679 36.2186 2.40495C36.2606 2.51176 38.5356 5.89368 40.8426 9.32252L40.8516 9.33549C42.1236 11.2261 43.4056 13.1307 44.3256 14.5062C44.4756 14.7338 44.5556 14.9994 44.5586 15.2699C44.5646 18.9762 44.5676 22.6825 44.5676 26.3879C44.5676 27.0687 44.7906 27.2982 45.4796 27.2982H48.3186C49.1006 27.2982 49.3146 27.0866 49.3146 26.323C49.3176 22.6965 49.3146 19.068 49.3056 15.4356C49.2948 15.0414 49.4124 14.6544 49.6406 14.3326C52.2961 10.4679 54.9461 6.59952 57.5906 2.72737C57.7956 2.4329 57.9626 2.14841 57.7766 1.78906C57.5906 1.42171 57.2366 1.42171 56.8926 1.42171H56.3896L55.9836 1.42471C55.2316 1.4287 54.4776 1.4317 53.7276 1.41273C53.2436 1.40275 52.9266 1.56945 52.6566 1.97373ZM126.102 23.1507C126.081 25.4466 124.188 27.2953 121.867 27.2853C119.546 27.2753 117.67 25.4106 117.669 23.1138C117.684 22.0077 118.135 20.9521 118.924 20.1758C119.714 19.3995 120.778 18.9653 121.886 18.9672C122.44 18.9648 122.989 19.0715 123.502 19.2811C124.015 19.4908 124.482 19.7993 124.875 20.189C125.266 20.5765 125.577 21.038 125.787 21.5465C125.998 22.0551 126.105 22.6004 126.102 23.1507ZM125.59 23.1876C125.524 25.229 123.868 26.8211 121.829 26.7832C121.341 26.7771 120.859 26.6749 120.411 26.4824C119.963 26.2898 119.557 26.0107 119.217 25.6612C118.879 25.3133 118.614 24.9014 118.438 24.4496C118.261 23.9979 118.177 23.5155 118.191 23.0309C118.228 21.0355 119.922 19.4454 121.988 19.4823C123.989 19.5182 125.646 21.2192 125.59 23.1876ZM122.574 23.4821L122.974 24.0481C123.214 24.3855 123.448 24.7169 123.682 25.0543C123.263 25.22 123.03 25.0912 122.863 24.7698C122.799 24.6503 122.726 24.5358 122.644 24.4274C122.581 24.3376 122.517 24.2477 122.463 24.1529C122.137 23.6009 121.672 23.4182 121.001 23.5839V25.0912C120.846 25.0987 120.691 25.111 120.536 25.1281V21.5695C120.737 21.5695 120.937 21.5665 121.135 21.5646C121.59 21.5531 122.045 21.5578 122.499 21.5785C123.039 21.6065 123.337 21.9279 123.393 22.407C123.45 22.8762 123.217 23.2336 122.714 23.4262C122.67 23.4513 122.623 23.4701 122.574 23.4821ZM121.426 23.0898C121.287 23.088 121.149 23.087 121.01 23.0868V21.9558C121.145 21.9558 121.279 21.9539 121.411 21.9529C121.735 21.9489 122.05 21.9449 122.36 21.9648C122.696 21.9918 122.919 22.1944 122.91 22.5348C122.9 22.8482 122.714 23.0589 122.388 23.0778C122.072 23.0978 121.756 23.0938 121.426 23.0898Z" fill="#168DBA"/>
<path fill-rule="evenodd" clip-rule="evenodd" d="M110.722 16.9454C110.852 17.1939 110.964 17.4145 111.076 17.6271C112.566 20.4021 114.056 23.1811 115.546 25.9621C115.639 26.1059 115.711 26.2616 115.759 26.4243C115.871 26.8486 115.619 27.2179 115.182 27.2269C113.879 27.2448 112.575 27.2359 111.272 27.2359C110.881 27.2359 110.76 26.9404 110.63 26.6639C109.168 23.6852 107.697 20.7066 106.254 17.72C106.077 17.3506 105.872 17.1939 105.444 17.2029C104.451 17.2306 103.457 17.2306 102.464 17.2029C102.055 17.1929 101.934 17.3327 101.934 17.7379C101.944 20.5688 101.944 23.3908 101.944 26.2217C101.944 27.1061 101.813 27.2359 100.929 27.2359H98.2286C97.5116 27.2359 97.3166 27.0512 97.3166 26.3415V2.22777C97.3166 1.59091 97.5306 1.36931 98.1726 1.36931C101.572 1.36931 104.969 1.35135 108.367 1.36931C112.165 1.38928 115.265 3.85085 115.936 7.47434C116.653 11.3294 115.042 14.8881 111.262 16.6868C111.078 16.7654 110.898 16.8517 110.722 16.9454ZM102.018 13.4506C102.223 13.4506 106.058 13.4407 107.827 13.4506C108.514 13.4547 109.182 13.2306 109.727 12.8138C111.123 11.7806 111.775 9.80715 111.29 8.06528C110.778 6.21161 109.42 5.17847 107.492 5.17847H102.018V13.4506ZM64.8026 12.4355H73.4976C74.2336 12.4355 74.4476 12.6481 74.4476 13.3578V15.3862C74.4476 16.023 74.2246 16.2446 73.5816 16.2446H64.8116V23.5016H75.2486C76.0486 23.5016 76.2256 23.6763 76.2256 24.4698V26.4064C76.2256 27.0971 76.0116 27.3097 75.3136 27.3097C70.9096 27.3097 61.2836 27.3197 60.8836 27.3097C60.4236 27.3017 60.1876 27.1271 60.1206 26.7447C60.1106 26.6858 60.1016 10.3791 60.1016 2.44837C60.1016 1.52803 60.2596 1.38029 61.1716 1.38029H75.1736C76.0586 1.38029 76.2166 1.53701 76.2166 2.4314V4.27509C76.2166 4.9938 76.0206 5.18745 75.2766 5.18745C71.9896 5.17747 65.0446 5.17747 64.8026 5.17747V12.4355ZM78.8026 2.28367C78.8026 1.52803 78.9706 1.36133 79.7246 1.36133H93.9686C94.6946 1.36133 94.8806 1.54699 94.8806 2.24773V4.32201C94.8806 4.97683 94.6946 5.17048 94.0236 5.17048H84.1086C83.4296 5.17048 83.4296 5.17048 83.4296 5.83429C83.4296 7.86264 83.4396 9.891 83.4196 11.9204C83.4196 12.3257 83.5416 12.4365 83.9516 12.4365C86.6316 12.4185 89.3226 12.4265 92.0036 12.4265C92.9816 12.4265 93.1116 12.5562 93.1116 13.4966V15.4331C93.1116 16.015 92.8976 16.2356 92.2926 16.2356C90.8776 16.2456 85.3006 16.2456 83.9136 16.2356C83.5696 16.2356 83.4206 16.3005 83.4206 16.6878C83.4386 18.809 83.4386 20.9302 83.4206 23.0504C83.4206 23.4277 83.5606 23.5016 83.9136 23.5016C87.2376 23.4936 90.5516 23.4936 93.8756 23.4936C94.7506 23.4936 94.8806 23.6224 94.8806 24.5078V26.4443C94.8806 27.0981 94.6846 27.3017 94.0326 27.3017H79.7896C78.9606 27.3017 78.8126 27.154 78.8126 26.3425C78.8026 22.3397 78.7996 18.3319 78.8026 14.3181V2.28367Z" fill="#168DBA"/>
</g>
<defs>
<clipPath id="clip0">
<rect width="126" height="27" fill="white" transform="translate(0.101562 0.481445)"/>
</clipPath>
</defs>
</svg>
