<svg width="98" height="33" viewBox="0 0 98 33" fill="none" xmlns="http://www.w3.org/2000/svg">
<g clip-path="url(#clip0)">
<path d="M42.467 31.679H34.5283L39.4937 0.976562H47.432L42.467 31.679Z" fill="#00579F"/>
<path d="M71.2445 1.72607C69.6787 1.10485 67.1951 0.418945 64.1242 0.418945C56.2845 0.418945 50.7638 4.59949 50.7299 10.5764C50.6648 14.9862 54.6826 17.4355 57.6875 18.9058C60.7589 20.4083 61.803 21.389 61.803 22.7282C61.7717 24.7851 59.3211 25.7332 57.0355 25.7332C53.866 25.7332 52.1677 25.2444 49.5869 24.1L48.5416 23.6095L47.4307 30.5015C49.2926 31.3498 52.723 32.1025 56.2845 32.1355C64.6143 32.1355 70.0373 28.0197 70.1015 21.6503C70.1332 18.1552 68.0117 15.4772 63.4378 13.2888C60.6612 11.884 58.9608 10.9368 58.9608 9.49936C58.9934 8.19267 60.399 6.85429 63.5333 6.85429C66.1142 6.78873 68.0104 7.40909 69.4469 8.02987L70.1649 8.35589L71.2445 1.72607Z" fill="#00579F"/>
<path d="M81.7961 20.8023C82.4499 19.0384 84.9656 12.212 84.9656 12.212C84.9326 12.2775 85.6181 10.4156 86.0101 9.27252L86.5649 11.9181C86.5649 11.9181 88.0682 19.2672 88.3947 20.8023C87.154 20.8023 83.3642 20.8023 81.7961 20.8023ZM91.5954 0.976562H85.4549C83.5612 0.976562 82.1226 1.53136 81.3056 3.52396L69.5137 31.6786H77.8435C77.8435 31.6786 79.2149 27.8892 79.5096 27.0731C80.4234 27.0731 88.5267 27.0731 89.7022 27.0731C89.9302 28.151 90.6495 31.6786 90.6495 31.6786H97.9999L91.5954 0.976562Z" fill="#00579F"/>
<path d="M27.8968 0.976562L20.1222 21.9127L19.2726 17.6666C17.8353 12.7672 13.3274 7.44403 8.29688 4.79722L15.4181 31.6465H23.8131L36.2913 0.976562H27.8968Z" fill="#00579F"/>
<path d="M12.9032 0.976562H0.130668L0 1.59692C9.9634 4.14474 16.562 10.2862 19.273 17.6679L16.4964 3.55738C16.0393 1.59648 14.6345 1.04125 12.9032 0.976562Z" fill="#FAA61A"/>
</g>
<defs>
<clipPath id="clip0">
<rect y="0.158203" width="98" height="32" rx="10" fill="white"/>
</clipPath>
</defs>
</svg>
