<svg width="150" height="190" viewBox="0 0 220 274" fill="none" xmlns="http://www.w3.org/2000/svg">
<g clip-path="url(#clip0_847_94)">
<mask id="mask0_847_94" style="mask-type:luminance" maskUnits="userSpaceOnUse" x="0" y="0" width="220" height="274">
<path d="M205 0H15C6.71573 0 0 6.71573 0 15V259C0 267.284 6.71573 274 15 274H205C213.284 274 220 267.284 220 259V15C220 6.71573 213.284 0 205 0Z" fill="white"/>
</mask>
<g mask="url(#mask0_847_94)">
<path d="M205 0H15C6.71573 0 0 6.71573 0 15V259C0 267.284 6.71573 274 15 274H205C213.284 274 220 267.284 220 259V15C220 6.71573 213.284 0 205 0Z" fill="#09101e"/>
<mask id="mask1_847_94" style="mask-type:luminance" maskUnits="userSpaceOnUse" x="0" y="67" width="220" height="245">
<path d="M205 67H15C6.71573 67 0 73.7157 0 82V297C0 305.284 6.71573 312 15 312H205C213.284 312 220 305.284 220 297V82C220 73.7157 213.284 67 205 67Z" fill="white"/>
</mask>
<g mask="url(#mask1_847_94)">
<path d="M-39 258.205L1.87385 222.441C4.85363 219.834 8.68724 218.397 12.6569 218.397C16.6266 218.397 20.4602 219.834 23.44 222.441L50.611 246.217C57.9162 252.61 69.1934 251.263 74.7681 243.336L99.1752 208.633C106.501 198.217 122.491 199.843 127.541 211.52L149.449 262.186C155.518 276.219 175.963 274.892 180.143 260.194L204.146 175.804C208.579 160.227 230.722 160.008 235.46 175.498L258.531 250.905C262.982 265.452 283.32 266.458 289.205 252.423L311 200.439" stroke="#319cff" stroke-width="0.989796" stroke-linecap="round"/>
<path d="M2.00831 222.77L-33.4479 253.865C-35.1927 255.395 -36.5903 257.278 -37.5476 259.388C-38.505 261.499 -39.0001 263.788 -39 266.103V288.693C-39.0002 290.834 -38.577 292.955 -37.7543 294.933C-36.9317 296.912 -35.7258 298.709 -34.2055 300.224C-32.6853 301.738 -30.8804 302.939 -28.8939 303.759C-26.9075 304.578 -24.7785 305 -22.6283 305H296.628C298.778 305 300.908 304.578 302.894 303.759C304.88 302.939 306.685 301.738 308.206 300.224C309.726 298.709 310.932 296.912 311.754 294.933C312.577 292.955 313 290.834 313 288.693V199.829L290.375 253.273C284.425 267.329 264.081 266.276 259.624 251.681L236.388 175.563C231.634 159.988 209.416 160.204 204.969 175.87L180.882 260.737C176.688 275.518 156.174 276.853 150.085 262.74L128.102 211.789C123.035 200.047 106.991 198.411 99.6406 208.887L75.151 243.784C69.5574 251.758 58.242 253.11 50.9121 246.681L23.6474 222.772C20.6577 220.151 16.8115 218.705 12.8288 218.705C8.84611 218.705 4.99993 220.151 2.01019 222.772L2.00831 222.77Z" fill="url(#paint0_linear_847_94)" fill-opacity="0.16"/>
</g>
<path d="M51 37C51 28.1634 43.8366 21 35 21C26.1634 21 19 28.1634 19 37C19 45.8366 26.1634 53 35 53C43.8366 53 51 45.8366 51 37Z" fill="#319cff" fill-opacity="0.1"/>
<path d="M50.5 37C50.5 28.4396 43.5604 21.5 35 21.5C26.4396 21.5 19.5 28.4396 19.5 37C19.5 45.5604 26.4396 52.5 35 52.5C43.5604 52.5 50.5 45.5604 50.5 37Z" stroke="#319cff" stroke-opacity="0.321569"/>
<path d="M34.7785 29C32.6662 29 32.4011 29.0095 31.5714 29.0483C30.7434 29.0873 30.1782 29.2222 29.6837 29.42C29.1721 29.6243 28.7382 29.8977 28.3059 30.3425C27.8732 30.7872 27.6075 31.2335 27.4082 31.7595C27.2153 32.2683 27.0841 32.8498 27.0468 33.7012C27.0097 34.5545 27 34.8273 27 37C27 39.1727 27.0094 39.4445 27.047 40.2978C27.0851 41.1495 27.2162 41.7308 27.4083 42.2395C27.6072 42.7657 27.8729 43.212 28.3054 43.6567C28.7375 44.1017 29.1715 44.3757 29.6827 44.58C30.1776 44.7778 30.7429 44.9127 31.5708 44.9517C32.4004 44.9905 32.6654 45 34.7775 45C36.89 45 37.1543 44.9905 37.984 44.9517C38.812 44.9127 39.3778 44.7778 39.8727 44.58C40.3841 44.3757 40.8174 44.1017 41.2495 43.6567C41.6822 43.212 41.9479 42.7657 42.1472 42.2397C42.3384 41.7308 42.4697 41.1493 42.5086 40.298C42.5458 39.4447 42.5556 39.1727 42.5556 37C42.5556 34.8273 42.5458 34.5547 42.5086 33.7013C42.4697 32.8497 42.3384 32.2683 42.1472 31.7597C41.9479 31.2335 41.6822 30.7872 41.2495 30.3425C40.8169 29.8975 40.3842 29.6242 39.8722 29.42C39.3764 29.2222 38.8108 29.0873 37.9828 29.0483C37.1532 29.0095 36.8891 29 34.7761 29H34.7785ZM34.0808 30.4417C34.2879 30.4413 34.5189 30.4417 34.7785 30.4417C36.8552 30.4417 37.1013 30.4493 37.9214 30.4877C38.6798 30.5233 39.0913 30.6537 39.3655 30.7632C39.7285 30.9082 39.9872 31.0815 40.2593 31.3615C40.5315 31.6415 40.7 31.9082 40.8413 32.2815C40.9478 32.5632 41.0747 32.9865 41.1092 33.7665C41.1465 34.6098 41.1546 34.8632 41.1546 36.9982C41.1546 39.1332 41.1465 39.3865 41.1092 40.2298C41.0745 41.0098 40.9478 41.4332 40.8413 41.7148C40.7004 42.0882 40.5315 42.354 40.2593 42.6338C39.9871 42.9138 39.7286 43.0872 39.3655 43.2322C39.0917 43.3422 38.6798 43.4722 37.9214 43.5078C37.1015 43.5462 36.8552 43.5545 34.7785 43.5545C32.7017 43.5545 32.4555 43.5462 31.6356 43.5078C30.8773 43.4718 30.4657 43.3415 30.1914 43.232C29.8284 43.087 29.5691 42.9137 29.2969 42.6337C29.0247 42.3537 28.8562 42.0877 28.7149 41.7142C28.6084 41.4325 28.4815 41.0092 28.447 40.2292C28.4097 39.3858 28.4023 39.1325 28.4023 36.9962C28.4023 34.8598 28.4097 34.6078 28.447 33.7645C28.4817 32.9845 28.6084 32.5612 28.7149 32.2792C28.8558 31.9058 29.0247 31.6392 29.2969 31.3592C29.5691 31.0792 29.8284 30.9058 30.1914 30.7605C30.4655 30.6505 30.8773 30.5205 31.6356 30.4847C32.3531 30.4513 32.6312 30.4413 34.0808 30.4397V30.4417ZM38.9303 31.77C38.415 31.77 37.9969 32.1995 37.9969 32.7297C37.9969 33.2597 38.415 33.6897 38.9303 33.6897C39.4455 33.6897 39.8636 33.2597 39.8636 32.7297C39.8636 32.1997 39.4455 31.77 38.9303 31.77ZM34.7785 32.8917C32.5727 32.8917 30.7843 34.7312 30.7843 37C30.7843 39.2688 32.5727 41.1075 34.7785 41.1075C36.9843 41.1075 38.7721 39.2688 38.7721 37C38.7721 34.7312 36.9843 32.8917 34.7785 32.8917ZM34.7785 34.3333C36.2103 34.3333 37.3711 35.5272 37.3711 37C37.3711 38.4727 36.2103 39.6667 34.7785 39.6667C33.3466 39.6667 32.1859 38.4727 32.1859 37C32.1859 35.5272 33.3466 34.3333 34.7785 34.3333Z" fill="#319cff"/>
<path d="M63.8761 30.9861V44.0001H62.1121V30.9861H63.8761ZM68.3149 44.0001H66.6229V35.1981H68.1529L68.3329 36.5481C68.8909 35.5401 70.0069 34.9461 71.2489 34.9461C73.5709 34.9461 74.6329 36.3681 74.6329 38.6181V44.0001H72.9409V38.9961C72.9409 37.2141 72.1129 36.4941 70.8169 36.4941C69.2329 36.4941 68.3149 37.6281 68.3149 39.3381V44.0001ZM76.151 41.4441H77.771C77.771 42.3441 78.455 42.8841 79.571 42.8841C80.759 42.8841 81.443 42.3981 81.443 41.5881C81.443 40.9941 81.155 40.6341 80.237 40.4001L78.689 40.0401C77.123 39.6621 76.385 38.8881 76.385 37.5921C76.385 35.9721 77.753 34.9461 79.697 34.9461C81.623 34.9461 82.883 36.0261 82.919 37.7001H81.299C81.263 36.8181 80.669 36.2601 79.643 36.2601C78.581 36.2601 77.987 36.7281 77.987 37.5381C77.987 38.1321 78.419 38.5281 79.283 38.7441L80.831 39.1221C82.325 39.4821 83.063 40.1661 83.063 41.4801C83.063 43.1541 81.623 44.2161 79.535 44.2161C77.465 44.2161 76.151 43.1181 76.151 41.4441ZM87.4233 44.0001H85.7313V36.6201H84.0033V35.1981H85.7313V32.4441H87.4233V35.1981H89.1513V36.6201H87.4233V44.0001ZM93.1383 44.2161C91.2483 44.2161 90.1323 43.1541 90.1323 41.5521C90.1323 39.9321 91.3383 38.9241 93.4083 38.7621L96.1803 38.5461V38.2941C96.1803 36.8181 95.2983 36.2961 94.1103 36.2961C92.6883 36.2961 91.8783 36.9261 91.8783 37.9881H90.4023C90.4023 36.1521 91.9143 34.9461 94.1823 34.9461C96.3603 34.9461 97.8363 36.0981 97.8363 38.4741V44.0001H96.3963L96.2163 42.5781C95.7663 43.5861 94.5603 44.2161 93.1383 44.2161ZM93.6243 42.9021C95.2263 42.9021 96.1983 41.8581 96.1983 40.2021V39.7341L93.9483 39.9141C92.4543 40.0581 91.8423 40.6341 91.8423 41.4981C91.8423 42.4341 92.5263 42.9021 93.6243 42.9021ZM99.6215 39.3741C99.6215 36.8901 101.223 34.9461 103.779 34.9461C105.201 34.9461 106.299 35.5941 106.857 36.6921L106.983 35.1981H108.495V43.6401C108.495 46.4121 106.785 48.1761 104.085 48.1761C101.691 48.1761 100.053 46.8261 99.7295 44.5941H101.421C101.637 45.8901 102.609 46.6461 104.085 46.6461C105.741 46.6461 106.821 45.5661 106.821 43.8921V42.1281C106.245 43.1541 105.093 43.7661 103.707 43.7661C101.205 43.7661 99.6215 41.8401 99.6215 39.3741ZM101.313 39.3381C101.313 40.9941 102.339 42.2901 103.995 42.2901C105.705 42.2901 106.749 41.0661 106.749 39.3381C106.749 37.6461 105.741 36.4221 104.013 36.4221C102.321 36.4221 101.313 37.7181 101.313 39.3381ZM115.977 35.1261V36.6741H115.221C113.619 36.6741 112.629 37.6461 112.629 39.3381V44.0001H110.937V35.2161H112.521L112.629 36.5481C112.989 35.6301 113.871 35.0181 115.077 35.0181C115.383 35.0181 115.635 35.0541 115.977 35.1261ZM119.787 44.2161C117.897 44.2161 116.781 43.1541 116.781 41.5521C116.781 39.9321 117.987 38.9241 120.057 38.7621L122.829 38.5461V38.2941C122.829 36.8181 121.947 36.2961 120.759 36.2961C119.337 36.2961 118.527 36.9261 118.527 37.9881H117.051C117.051 36.1521 118.563 34.9461 120.831 34.9461C123.009 34.9461 124.485 36.0981 124.485 38.4741V44.0001H123.045L122.865 42.5781C122.415 43.5861 121.209 44.2161 119.787 44.2161ZM120.273 42.9021C121.875 42.9021 122.847 41.8581 122.847 40.2021V39.7341L120.597 39.9141C119.103 40.0581 118.491 40.6341 118.491 41.4981C118.491 42.4341 119.175 42.9021 120.273 42.9021ZM128.52 44.0001H126.828V35.1981H128.34L128.502 36.3501C128.952 35.5221 129.888 34.9461 131.13 34.9461C132.498 34.9461 133.47 35.6301 133.92 36.7281C134.334 35.6301 135.396 34.9461 136.764 34.9461C138.78 34.9461 140.004 36.2061 140.004 38.2401V44.0001H138.348V38.6541C138.348 37.2681 137.574 36.4761 136.386 36.4761C135.108 36.4761 134.262 37.3761 134.262 38.7801V44.0001H132.588V38.6361C132.588 37.2501 131.832 36.4941 130.644 36.4941C129.366 36.4941 128.52 37.3761 128.52 38.7801V44.0001Z" fill="white"/>
<path d="M21.912 77.1006V88.6686H20.344V77.1006H21.912ZM25.8576 88.6686H24.3536V80.8446H25.7136L25.8736 82.0446C26.3696 81.1486 27.3616 80.6206 28.4656 80.6206C30.5296 80.6206 31.4736 81.8846 31.4736 83.8846V88.6686H29.9696V84.2206C29.9696 82.6366 29.2336 81.9966 28.0816 81.9966C26.6736 81.9966 25.8576 83.0046 25.8576 84.5246V88.6686ZM32.823 86.3966H34.263C34.263 87.1966 34.871 87.6766 35.863 87.6766C36.919 87.6766 37.527 87.2446 37.527 86.5246C37.527 85.9966 37.271 85.6766 36.455 85.4686L35.079 85.1486C33.687 84.8126 33.031 84.1246 33.031 82.9726C33.031 81.5326 34.247 80.6206 35.975 80.6206C37.687 80.6206 38.807 81.5806 38.839 83.0686H37.399C37.367 82.2846 36.839 81.7886 35.927 81.7886C34.983 81.7886 34.455 82.2046 34.455 82.9246C34.455 83.4526 34.839 83.8046 35.607 83.9966L36.983 84.3326C38.311 84.6526 38.967 85.2606 38.967 86.4286C38.967 87.9166 37.687 88.8606 35.831 88.8606C33.991 88.8606 32.823 87.8846 32.823 86.3966ZM41.3709 78.9886C40.8269 78.9886 40.3789 78.5406 40.3789 77.9966C40.3789 77.4366 40.8269 77.0046 41.3709 77.0046C41.9149 77.0046 42.3629 77.4366 42.3629 77.9966C42.3629 78.5406 41.9149 78.9886 41.3709 78.9886ZM40.6349 88.6686V80.8446H42.1389V88.6686H40.6349ZM43.8264 84.5566C43.8264 82.3486 45.2504 80.6206 47.5224 80.6206C48.7864 80.6206 49.7624 81.1966 50.2584 82.1726L50.3704 80.8446H51.7144V88.3486C51.7144 90.8126 50.1944 92.3806 47.7944 92.3806C45.6664 92.3806 44.2104 91.1806 43.9224 89.1966H45.4264C45.6184 90.3486 46.4824 91.0206 47.7944 91.0206C49.2664 91.0206 50.2264 90.0606 50.2264 88.5726V87.0046C49.7144 87.9166 48.6904 88.4606 47.4584 88.4606C45.2344 88.4606 43.8264 86.7486 43.8264 84.5566ZM45.3304 84.5246C45.3304 85.9966 46.2424 87.1486 47.7144 87.1486C49.2344 87.1486 50.1624 86.0606 50.1624 84.5246C50.1624 83.0206 49.2664 81.9326 47.7304 81.9326C46.2264 81.9326 45.3304 83.0846 45.3304 84.5246ZM55.3889 88.6526H53.8849V76.8926H55.3889V82.0446C55.8849 81.1966 56.8289 80.6206 58.0449 80.6206C60.0449 80.6206 61.0049 81.8846 61.0049 83.8846V88.6686H59.5009V84.2206C59.5009 82.6366 58.7489 81.9966 57.6289 81.9966C56.1729 81.9966 55.3889 83.0526 55.3889 84.3966V88.6526ZM65.296 88.6686H63.792V82.1086H62.256V80.8446H63.792V78.3966H65.296V80.8446H66.832V82.1086H65.296V88.6686ZM67.5418 86.3966H68.9818C68.9818 87.1966 69.5898 87.6766 70.5818 87.6766C71.6378 87.6766 72.2458 87.2446 72.2458 86.5246C72.2458 85.9966 71.9898 85.6766 71.1738 85.4686L69.7978 85.1486C68.4058 84.8126 67.7498 84.1246 67.7498 82.9726C67.7498 81.5326 68.9658 80.6206 70.6938 80.6206C72.4058 80.6206 73.5258 81.5806 73.5578 83.0686H72.1178C72.0858 82.2846 71.5578 81.7886 70.6458 81.7886C69.7018 81.7886 69.1738 82.2046 69.1738 82.9246C69.1738 83.4526 69.5578 83.8046 70.3258 83.9966L71.7018 84.3326C73.0298 84.6526 73.6858 85.2606 73.6858 86.4286C73.6858 87.9166 72.4058 88.8606 70.5498 88.8606C68.7098 88.8606 67.5418 87.8846 67.5418 86.3966ZM90.4166 82.8766C90.4166 86.3966 88.1126 88.8606 84.8326 88.8606C81.5686 88.8606 79.2966 86.3966 79.2966 82.8766C79.2966 79.3726 81.5846 76.8926 84.8486 76.8926C88.1286 76.8926 90.4166 79.3566 90.4166 82.8766ZM88.7686 82.8766C88.7686 80.1886 87.2006 78.4126 84.8486 78.4126C82.4966 78.4126 80.9446 80.1886 80.9446 82.8766C80.9446 85.5646 82.4966 87.3566 84.8486 87.3566C87.2006 87.3566 88.7686 85.5486 88.7686 82.8766ZM94.3581 88.6686L91.2061 80.8446H92.8061L94.5181 85.2126C94.7901 85.9486 95.0141 86.6046 95.1421 87.0846C95.2701 86.5726 95.5261 85.9006 95.7981 85.2126L97.5421 80.8446H99.1101L95.8461 88.6686H94.3581ZM103.323 88.8606C101.019 88.8606 99.4354 87.1966 99.4354 84.7646C99.4354 82.3166 100.987 80.6206 103.259 80.6206C105.483 80.6206 106.939 82.1566 106.939 84.4766V85.0366L100.891 85.0526C101.003 86.7006 101.867 87.6126 103.355 87.6126C104.523 87.6126 105.291 87.1326 105.547 86.2366H106.955C106.571 87.9166 105.259 88.8606 103.323 88.8606ZM103.259 81.8846C101.947 81.8846 101.115 82.6686 100.923 84.0446H105.435C105.435 82.7486 104.587 81.8846 103.259 81.8846ZM113.099 80.7806V82.1566H112.427C111.003 82.1566 110.123 83.0206 110.123 84.5246V88.6686H108.619V80.8606H110.027L110.123 82.0446C110.443 81.2286 111.227 80.6846 112.299 80.6846C112.571 80.6846 112.795 80.7166 113.099 80.7806ZM116.936 88.6686L113.784 80.8446H115.384L117.096 85.2126C117.368 85.9486 117.592 86.6046 117.72 87.0846C117.848 86.5726 118.104 85.9006 118.376 85.2126L120.12 80.8446H121.688L118.424 88.6686H116.936ZM123.621 78.9886C123.077 78.9886 122.629 78.5406 122.629 77.9966C122.629 77.4366 123.077 77.0046 123.621 77.0046C124.165 77.0046 124.613 77.4366 124.613 77.9966C124.613 78.5406 124.165 78.9886 123.621 78.9886ZM122.885 88.6686V80.8446H124.389V88.6686H122.885ZM129.948 88.8606C127.644 88.8606 126.06 87.1966 126.06 84.7646C126.06 82.3166 127.612 80.6206 129.884 80.6206C132.108 80.6206 133.564 82.1566 133.564 84.4766V85.0366L127.516 85.0526C127.628 86.7006 128.492 87.6126 129.98 87.6126C131.148 87.6126 131.916 87.1326 132.172 86.2366H133.58C133.196 87.9166 131.884 88.8606 129.948 88.8606ZM129.884 81.8846C128.572 81.8846 127.74 82.6686 127.548 84.0446H132.06C132.06 82.7486 131.212 81.8846 129.884 81.8846ZM136.659 88.6686L134.099 80.8446H135.651L136.947 84.9086C137.123 85.4846 137.283 86.0766 137.427 86.7646C137.555 86.0766 137.763 85.4206 137.939 84.9086L139.251 80.8446H140.787L142.083 84.9086C142.211 85.2926 142.467 86.2046 142.595 86.7646C142.723 86.1406 142.867 85.5966 143.091 84.9086L144.403 80.8446H145.971L143.299 88.6686H141.875L140.515 84.4766C140.259 83.6926 140.099 83.0846 140.019 82.6526C139.939 83.0366 139.795 83.5486 139.507 84.4926L138.147 88.6686H136.659Z" fill="white"/>
<path d="M29.8052 141.113C24.3286 141.113 20.7762 137.634 20.7762 132.306H24.3656C24.3656 135.747 26.4749 137.856 29.8792 137.856C33.5057 137.856 35.8369 135.451 35.8369 131.825C35.8369 128.383 33.6537 125.83 29.9163 125.83C27.659 125.83 25.5868 126.903 24.3656 128.42L21.2943 127.643L24.5506 113.915H37.9462V117.245H27.1779L25.4017 124.35C26.8079 123.277 28.5841 122.722 30.5823 122.722C36.0219 122.722 39.5374 126.533 39.5374 131.677C39.5374 137.227 35.5779 141.113 29.8052 141.113ZM60.0133 140.632L41.9553 140.669V137.893L50.5772 130.456C54.9067 126.718 56.1279 124.905 56.1279 122.056C56.1279 118.688 54.2037 116.69 50.9843 116.69C47.6909 116.69 45.5447 119.095 45.4707 122.907H41.8442C41.9553 117.171 45.5817 113.434 51.0213 113.434C56.3869 113.434 59.8283 116.69 59.8283 121.834C59.8283 125.645 57.9411 128.346 53.2045 132.454L47.6539 137.264H60.0133V140.632ZM69.5291 139.226C69.5291 141.89 67.5309 144.11 64.9036 144.443V142.889C66.4208 142.63 67.4939 141.631 67.4939 140.484C67.2349 140.632 66.9388 140.706 66.4948 140.706C65.2736 140.706 64.2375 139.818 64.2375 138.448C64.2375 136.968 65.2366 135.895 66.7168 135.895C68.271 135.895 69.5291 137.19 69.5291 139.226ZM81.9645 141.113C76.4878 141.113 72.9354 137.634 72.9354 132.306H76.5248C76.5248 135.747 78.6341 137.856 82.0385 137.856C85.6649 137.856 87.9962 135.451 87.9962 131.825C87.9962 128.383 85.8129 125.83 82.0755 125.83C79.8182 125.83 77.746 126.903 76.5248 128.42L73.4535 127.643L76.7099 113.915H90.1054V117.245H79.3372L77.561 124.35C78.9671 123.277 80.7433 122.722 82.7416 122.722C88.1812 122.722 91.6966 126.533 91.6966 131.677C91.6966 137.227 87.7371 141.113 81.9645 141.113ZM112.173 140.632L94.1145 140.669V137.893L102.736 130.456C107.066 126.718 108.287 124.905 108.287 122.056C108.287 118.688 106.363 116.69 103.144 116.69C99.8502 116.69 97.7039 119.095 97.6299 122.907H94.0035C94.1145 117.171 97.7409 113.434 103.181 113.434C108.546 113.434 111.988 116.69 111.988 121.834C111.988 125.645 110.1 128.346 105.364 132.454L99.8131 137.264H112.173V140.632ZM120.694 117.171H115.069V113.915H124.172V140.669H120.694V117.171ZM130.145 126.718H137.916V118.947H140.877V126.718H148.648V129.678H140.877V137.486H137.916V129.678H130.145V126.718Z" fill="white"/>
<path d="M25.4049 171.81H21.5015V176.03H20.1545V166.093H26.1471V167.33H21.5015V170.587H25.4049V171.81ZM26.5952 172.662C26.5952 170.587 28.0796 169.13 30.1 169.13C32.1067 169.13 33.5911 170.587 33.5911 172.662C33.5911 174.738 32.1067 176.195 30.1 176.195C28.0796 176.195 26.5952 174.738 26.5952 172.662ZM27.9009 172.662C27.9009 174.064 28.7943 175.04 30.1 175.04C31.392 175.04 32.2991 174.064 32.2991 172.662C32.2991 171.261 31.392 170.285 30.1 170.285C28.7943 170.285 27.9009 171.261 27.9009 172.662ZM36.3407 176.03H35.0488V165.914H36.3407V176.03ZM39.5621 176.03H38.2701V165.914H39.5621V176.03ZM41.0242 172.662C41.0242 170.587 42.5086 169.13 44.529 169.13C46.5357 169.13 48.0201 170.587 48.0201 172.662C48.0201 174.738 46.5357 176.195 44.529 176.195C42.5086 176.195 41.0242 174.738 41.0242 172.662ZM42.3299 172.662C42.3299 174.064 43.2233 175.04 44.529 175.04C45.821 175.04 46.7281 174.064 46.7281 172.662C46.7281 171.261 45.821 170.285 44.529 170.285C43.2233 170.285 42.3299 171.261 42.3299 172.662ZM50.5847 176.03L48.3856 169.309H49.7188L50.8321 172.8C50.9833 173.295 51.1207 173.803 51.2444 174.394C51.3544 173.803 51.5331 173.24 51.6843 172.8L52.8113 169.309H54.1308L55.2441 172.8C55.354 173.13 55.5739 173.913 55.6839 174.394C55.7938 173.858 55.9175 173.391 56.11 172.8L57.237 169.309H58.584L56.2886 176.03H55.0654L53.8971 172.429C53.6772 171.755 53.5398 171.233 53.471 170.862C53.4023 171.192 53.2786 171.632 53.0312 172.443L51.8629 176.03H50.5847ZM62.2828 176.195C60.3036 176.195 58.9429 174.765 58.9429 172.676C58.9429 170.573 60.2761 169.116 62.2278 169.116C64.1383 169.116 65.3891 170.436 65.3891 172.429V172.91L60.1937 172.924C60.2899 174.339 61.0321 175.123 62.3103 175.123C63.3137 175.123 63.9734 174.71 64.1933 173.941H65.4028C65.0729 175.384 63.9459 176.195 62.2828 176.195ZM62.2278 170.202C61.1008 170.202 60.3861 170.876 60.2212 172.058H64.0971C64.0971 170.944 63.3686 170.202 62.2278 170.202ZM70.6806 169.254V170.436H70.1033C68.88 170.436 68.1241 171.178 68.1241 172.47V176.03H66.8321V169.323H68.0416L68.1241 170.34C68.399 169.639 69.0725 169.171 69.9933 169.171C70.227 169.171 70.4194 169.199 70.6806 169.254ZM71.3426 174.078H72.5795C72.5795 174.765 73.1018 175.178 73.954 175.178C74.8611 175.178 75.3834 174.807 75.3834 174.188C75.3834 173.735 75.1635 173.46 74.4625 173.281L73.2805 173.006C72.0847 172.717 71.5212 172.126 71.5212 171.137C71.5212 169.9 72.5658 169.116 74.0502 169.116C75.5209 169.116 76.483 169.941 76.5105 171.219H75.2735C75.246 170.546 74.7924 170.12 74.009 170.12C73.198 170.12 72.7445 170.477 72.7445 171.096C72.7445 171.549 73.0743 171.852 73.7341 172.017L74.9161 172.305C76.0569 172.58 76.6204 173.102 76.6204 174.106C76.6204 175.384 75.5209 176.195 73.9265 176.195C72.3459 176.195 71.3426 175.356 71.3426 174.078Z" fill="white"/>
<path d="M105.722 171.03C105.722 166.412 101.979 162.669 97.3612 162.669C92.7434 162.669 89 166.412 89 171.03C89 175.648 92.7434 179.391 97.3612 179.391C101.979 179.391 105.722 175.648 105.722 171.03Z" fill="#319cff" fill-opacity="0.2"/>
<path d="M93.8074 174.165L100.078 167.894M100.078 167.894H95.8977M100.078 167.894V172.075" stroke="#319cff" stroke-width="1.04515" stroke-linecap="round" stroke-linejoin="round"/>
</g>
<path d="M205 0.5H15C6.99187 0.5 0.5 6.99187 0.5 15V259C0.5 267.008 6.99187 273.5 15 273.5H205C213.008 273.5 219.5 267.008 219.5 259V15C219.5 6.99187 213.008 0.5 205 0.5Z" stroke="#0e1729"/>
</g>
<defs>
<linearGradient id="paint0_linear_847_94" x1="116.895" y1="122.375" x2="116.895" y2="305" gradientUnits="userSpaceOnUse">
<stop stop-color="#319cff"/>
<stop offset="1" stop-color="#319cff" stop-opacity="0"/>
</linearGradient>
<clipPath id="clip0_847_94">
<rect width="220" height="274" fill="white"/>
</clipPath>
</defs>
</svg>
