<svg width="726" height="195" viewBox="0 0 726 195" fill="none" xmlns="http://www.w3.org/2000/svg">
<path d="M200.35 161.351H490.65M200.35 161.351V451.65M200.35 161.351L-65.9999 -105M490.65 161.351V451.65M490.65 161.351L757 -105M490.65 451.65H200.35M490.65 451.65L757 718M200.35 451.65L-65.9999 718M-65.9999 -105H757M-65.9999 -105V718M757 -105V718M757 718H-65.9999M195.083 457.932H496.191M188.609 464.763H504.504M179.199 471.868H510.868V140.199M171.984 479.824H519.674M164.029 488.602H527.685M538.055 497.683H154.317V113.945M117.09 534.882H573.882V78.0901M606.83 568.104H83.8958V45.1701M627.46 588.624H63.3756L63.3756 24.5401M332.305 451.65L308.081 718M319.109 451.65L270.689 718M305.914 451.65L233.27 718M292.718 451.65L195.851 718M279.523 451.65L158.46 718M266.327 451.65L121.041 718M253.132 451.65L83.6489 718M239.937 451.65L46.2298 718M226.741 451.65L8.81076 718M213.546 451.65L-28.5809 718M358.695 451.65L382.919 718M371.891 451.65L420.311 718M385.086 451.65L457.73 718M398.282 451.65L495.149 718M411.477 451.65L532.54 718M424.673 451.65L569.96 718M437.868 451.65L607.351 718M451.063 451.65L644.77 718M464.259 451.65L682.189 718M477.454 451.65L719.581 718M345.5 451.65V718M194.068 456.917V155.808M187.237 463.391V147.496M180.132 472.801V141.132L511.801 141.132M172.176 480.016V132.326M163.398 487.971V124.315M117.117 534.91V78.1175L573.91 78.1177M200.35 319.695L-66 343.919M200.35 332.891L-66 381.31M200.35 346.086L-66 418.73M200.35 359.282L-66 456.149M200.35 372.477L-66 493.54M200.35 385.672L-66 530.959M200.35 398.868L-66 568.351M200.35 412.063L-66 605.77M200.35 425.258L-66 643.189M200.35 438.454L-66 680.581M200.35 293.304L-66 269.081M200.35 280.109L-66 231.689M200.35 266.913L-66 194.27M200.35 253.718L-66 156.851M200.35 240.522L-66 119.459M200.35 227.327L-66 82.0403M200.35 214.131L-66 44.6483M200.35 200.936L-66 7.22955M200.35 187.741L-66 -30.1899M200.35 174.545L-66 -67.5811M200.35 306.5H-66M495.917 155.068H194.809M502.391 148.237H186.496M519.016 133.177H171.326M526.972 124.398H163.315M152.945 115.317H536.683V499.054M84.1701 44.8957H607.104V567.83M63.5403 24.3756H627.624L627.624 588.46M358.695 161.35L382.919 -105M371.891 161.35L420.311 -105M385.086 161.35L457.73 -105M398.282 161.35L495.149 -105M411.477 161.35L532.54 -105M424.673 161.35L569.96 -105M437.868 161.35L607.351 -105M451.063 161.35L644.77 -105M464.259 161.35L682.189 -105M477.454 161.35L719.581 -105M332.305 161.35L308.081 -105M319.109 161.35L270.689 -105M305.914 161.35L233.27 -105M292.718 161.35L195.851 -105M279.523 161.35L158.46 -105M266.327 161.35L121.041 -105M253.132 161.35L83.6489 -105M239.937 161.35L46.2298 -105M226.741 161.35L8.81076 -105M213.546 161.35L-28.5809 -105M345.5 161.35V-105M496.932 156.083V457.191M503.763 149.608V465.503M518.824 132.984V480.674M527.602 125.028V488.684M490.65 293.304L757 269.081M490.65 280.109L757 231.689M490.65 266.913L757 194.27M490.65 253.718L757 156.851M490.65 240.522L757 119.459M490.65 227.327L757 82.0403M490.65 214.131L757 44.6483M490.65 200.936L757 7.22955M490.65 187.741L757 -30.1899M490.65 174.545L757 -67.5811M490.65 319.695L757 343.919M490.65 332.891L757 381.31M490.65 346.086L757 418.73M490.65 359.282L757 456.149M490.65 372.477L757 493.54M490.65 385.672L757 530.959M490.65 398.868L757 568.351M490.65 412.063L757 605.77M490.65 425.258L757 643.189M490.65 438.454L757 680.581M490.65 306.5H757M142.877 509.122H548.123V103.877L142.877 103.877V509.122ZM130.752 521.247H560.248V91.752L130.752 91.7518L130.752 521.247ZM101.645 550.355H589.355V62.6456L101.645 62.6447L101.645 550.355ZM39.3441 612.656H651.656V0.343953L39.344 0.343761L39.3441 612.656ZM10.8683 641.132H680.132V-28.1315L10.8682 -28.1324L10.8683 641.132ZM-23.4783 675.478H714.478V-62.4781L-23.4783 -62.4783L-23.4783 675.478Z" stroke="url(#paint0_radial_517_8096)" stroke-width="0.566282" stroke-miterlimit="10"/>
<defs>
<radialGradient id="paint0_radial_517_8096" cx="0" cy="0" r="1" gradientUnits="userSpaceOnUse" gradientTransform="translate(345.5 49.1708) rotate(90) scale(200.459)">
<stop stop-color="#e6e8e9"/>
<stop offset="1" stop-color="#e6e8e9" stop-opacity="0"/>
</radialGradient>
</defs>
</svg>
