<svg width="210" height="250" viewBox="0 0 210 250" fill="none" xmlns="http://www.w3.org/2000/svg">
<g clip-path="url(#clip0_847_64)">
<path d="M188.127 0.417969H20.9031C9.58954 0.417969 0.418091 9.58942 0.418091 20.903V229.097C0.418091 240.411 9.58954 249.582 20.9031 249.582H188.127C199.441 249.582 208.612 240.411 208.612 229.097V20.903C208.612 9.58942 199.441 0.417969 188.127 0.417969Z" fill="#fff"/>
<path d="M188.127 0.417969H20.9031C9.58954 0.417969 0.418091 9.58942 0.418091 20.903V229.097C0.418091 240.411 9.58954 249.582 20.9031 249.582H188.127C199.441 249.582 208.612 240.411 208.612 229.097V20.903C208.612 9.58942 199.441 0.417969 188.127 0.417969Z" stroke="#ddd" stroke-width="0.83612"/>
<path d="M39.8916 20.9028H29.5074C24.2938 20.9028 20.0674 25.1293 20.0674 30.3428V40.727C20.0674 45.9406 24.2938 50.167 29.5074 50.167H39.8916C45.1052 50.167 49.3316 45.9406 49.3316 40.727V30.3428C49.3316 25.1293 45.1052 20.9028 39.8916 20.9028Z" fill="#319cff" fill-opacity="0.2"/>
<mask id="mask0_847_64" style="mask-type:luminance" maskUnits="userSpaceOnUse" x="25" y="27" width="19" height="19">
<path d="M43.9407 27.064H25.458V45.5467H43.9407V27.064Z" fill="white"/>
</mask>
<g mask="url(#mask0_847_64)">
<path d="M34.6992 39.386V43.2365M39.3198 43.2365L36.2768 40.7007C35.7156 40.233 35.4349 39.9991 35.1217 39.9097C34.8455 39.831 34.5528 39.831 34.2766 39.9097C33.9634 39.9991 33.6828 40.233 33.1215 40.7007L30.0785 43.2365M31.6187 35.5354V36.3055M34.6992 33.9952V36.3055M37.7796 32.455V36.3055M42.4003 29.3745H26.998M27.7682 29.3745H41.6302V35.6894C41.6302 36.9833 41.6302 37.6303 41.3783 38.1245C41.1568 38.5592 40.8034 38.9126 40.3687 39.1341C39.8745 39.386 39.2275 39.386 37.9336 39.386H31.4647C30.1708 39.386 29.5238 39.386 29.0296 39.1341C28.5949 38.9126 28.2415 38.5592 28.02 38.1245C27.7682 37.6303 27.7682 36.9833 27.7682 35.6894V29.3745Z" stroke="#319cff" stroke-width="1.54022" stroke-linecap="round" stroke-linejoin="round"/>
</g>
<path d="M65.6361 40.5352H62.4388V30.8629H65.5826C68.4723 30.8629 70.4254 32.8161 70.4254 35.7057C70.4254 38.582 68.499 40.5352 65.6361 40.5352ZM65.489 32.0669H63.7499V39.3178H65.5425C67.6963 39.3178 69.0609 37.9265 69.0609 35.7057C69.0609 33.4582 67.6963 32.0669 65.489 32.0669ZM73.5248 40.6957C72.1202 40.6957 71.2907 39.9064 71.2907 38.7158C71.2907 37.5117 72.187 36.7626 73.7255 36.6422L75.7857 36.4816V36.2944C75.7857 35.1974 75.1302 34.8094 74.2472 34.8094C73.1904 34.8094 72.5884 35.2776 72.5884 36.0669H71.4914C71.4914 34.7024 72.6151 33.8061 74.3008 33.8061C75.9195 33.8061 77.0165 34.6622 77.0165 36.4281V40.5352H75.9462L75.8125 39.4783C75.478 40.2275 74.5817 40.6957 73.5248 40.6957ZM73.886 39.7191C75.0767 39.7191 75.7991 38.9432 75.7991 37.7124V37.3646L74.1268 37.4984C73.0165 37.6054 72.5616 38.0335 72.5616 38.6756C72.5616 39.3713 73.07 39.7191 73.886 39.7191ZM79.1058 32.4415C78.651 32.4415 78.2764 32.0669 78.2764 31.6121C78.2764 31.1439 78.651 30.7826 79.1058 30.7826C79.5607 30.7826 79.9353 31.1439 79.9353 31.6121C79.9353 32.0669 79.5607 32.4415 79.1058 32.4415ZM78.4904 40.5352V33.9933H79.748V40.5352H78.4904ZM82.5904 40.5352H81.3328V30.689H82.5904V40.5352ZM83.5452 43.4649V42.4348H84.388C84.99 42.4348 85.4716 42.3412 85.7793 41.5117L86.0068 40.883L83.3713 33.9933H84.6957L86.5954 39.2643L88.5352 33.9933H89.8328L86.7425 42.0067C86.3011 43.1305 85.6455 43.5987 84.6422 43.5987C84.2275 43.5987 83.8797 43.5452 83.5452 43.4649ZM94.5751 40.5352H93.2106L96.7423 30.8629H98.2005L101.746 40.5352H100.368L99.4982 38.1271H95.4313L94.5751 40.5352ZM97.3042 32.9499L95.8326 36.99H99.1102L97.6253 32.9499C97.5584 32.7626 97.4915 32.5352 97.4647 32.388C97.438 32.5218 97.3711 32.7492 97.3042 32.9499ZM106.889 33.9933H108.133V40.5352H107.009L106.875 39.5452C106.501 40.2275 105.631 40.6957 104.668 40.6957C103.143 40.6957 102.287 39.6656 102.287 38.0602V33.9933H103.544V37.6455C103.544 39.0502 104.146 39.5853 105.109 39.5853C106.26 39.5853 106.889 38.8495 106.889 37.4449V33.9933ZM112.181 40.6957C110.282 40.6957 109.131 39.2776 109.131 37.2843C109.131 35.2776 110.295 33.8061 112.235 33.8061C113.238 33.8061 114.081 34.2475 114.522 35.0502V30.689H115.767V40.5352H114.643L114.536 39.3445C114.108 40.2408 113.225 40.6957 112.181 40.6957ZM112.435 39.5586C113.72 39.5586 114.509 38.6087 114.509 37.2442C114.509 35.9064 113.72 34.9432 112.435 34.9432C111.151 34.9432 110.402 35.9064 110.402 37.2442C110.402 38.5954 111.151 39.5586 112.435 39.5586ZM117.929 32.4415C117.474 32.4415 117.099 32.0669 117.099 31.6121C117.099 31.1439 117.474 30.7826 117.929 30.7826C118.383 30.7826 118.758 31.1439 118.758 31.6121C118.758 32.0669 118.383 32.4415 117.929 32.4415ZM117.313 40.5352V33.9933H118.571V40.5352H117.313ZM122.952 40.6957C121.025 40.6957 119.701 39.3044 119.701 37.2709C119.701 35.2241 120.998 33.8061 122.898 33.8061C124.758 33.8061 125.975 35.0903 125.975 37.0301V37.4984L120.918 37.5117C121.012 38.8897 121.734 39.6522 122.978 39.6522C123.955 39.6522 124.597 39.2509 124.811 38.5017H125.988C125.667 39.9064 124.57 40.6957 122.952 40.6957ZM122.898 34.8629C121.801 34.8629 121.105 35.5184 120.945 36.6689H124.717C124.717 35.5853 124.008 34.8629 122.898 34.8629ZM128.37 40.5352H127.112V33.9933H128.249L128.383 34.9967C128.798 34.2475 129.627 33.8061 130.55 33.8061C132.276 33.8061 133.065 34.8629 133.065 36.5352V40.5352H131.808V36.8161C131.808 35.4917 131.192 34.9566 130.229 34.9566C129.052 34.9566 128.37 35.7994 128.37 37.0703V40.5352ZM134.111 37.2709C134.111 35.2241 135.409 33.8061 137.322 33.8061C138.967 33.8061 140.118 34.7425 140.345 36.2007H139.088C138.874 35.3713 138.205 34.9298 137.362 34.9298C136.171 34.9298 135.355 35.8395 135.355 37.2576C135.355 38.6622 136.118 39.5719 137.309 39.5719C138.205 39.5719 138.874 39.1037 139.101 38.3278H140.359C140.105 39.7459 138.887 40.6957 137.309 40.6957C135.382 40.6957 134.111 39.3311 134.111 37.2709ZM144.241 40.6957C142.314 40.6957 140.99 39.3044 140.99 37.2709C140.99 35.2241 142.288 33.8061 144.187 33.8061C146.047 33.8061 147.264 35.0903 147.264 37.0301V37.4984L142.207 37.5117C142.301 38.8897 143.023 39.6522 144.268 39.6522C145.244 39.6522 145.886 39.2509 146.1 38.5017H147.278C146.956 39.9064 145.859 40.6957 144.241 40.6957ZM144.187 34.8629C143.09 34.8629 142.395 35.5184 142.234 36.6689H146.007C146.007 35.5853 145.298 34.8629 144.187 34.8629Z" fill="#202020"/>
<path d="M24.758 70.7809H20.9453V68.5735H27.1159V86.709H24.758V70.7809ZM32.1642 87.01C31.1859 87.01 30.3581 86.2073 30.3581 85.2541C30.3581 84.2759 31.1859 83.4732 32.1642 83.4732C33.1173 83.4732 33.9451 84.2759 33.9451 85.2541C33.9451 86.2073 33.1173 87.01 32.1642 87.01ZM41.1382 77.3277H39.3322V75.6973L44.4743 70.7558H36.3222V68.5735H47.5847V70.5551L42.6181 75.2959C45.7034 75.6722 48.0362 77.7541 48.0362 81.015C48.0362 84.6772 45.277 87.01 41.5897 87.01C38.0278 87.01 35.4693 84.8277 35.4693 81.0652H37.9024C37.9024 83.423 39.3573 84.8026 41.6399 84.8026C43.9977 84.8026 45.5278 83.2976 45.5278 80.9648C45.5278 78.7826 44.0228 77.3277 41.1382 77.3277ZM61.4744 86.6839L49.2335 86.709V84.8277L55.078 79.7859C58.0128 77.2525 58.8406 76.0234 58.8406 74.0919C58.8406 71.8093 57.5362 70.4548 55.354 70.4548C53.1215 70.4548 51.6667 72.0852 51.6165 74.6688H49.1583C49.2335 70.7809 51.6917 68.2474 55.379 68.2474C59.0162 68.2474 61.3489 70.4548 61.3489 73.9414C61.3489 76.525 60.0697 78.3561 56.859 81.1404L53.0964 84.4013H61.4744V86.6839ZM63.2351 77.6538C63.2351 72.0351 66.1448 68.2224 70.71 68.2224C75.2502 68.2224 78.1599 72.0351 78.1599 77.6538C78.1599 83.2976 75.3756 87.0351 70.71 87.0351C66.0194 87.0351 63.2351 83.2976 63.2351 77.6538ZM65.6682 77.6538C65.6682 82.1187 67.5244 84.8277 70.71 84.8277C73.8956 84.8277 75.7267 82.1187 75.7267 77.6538C75.7267 73.1387 73.8956 70.4297 70.71 70.4297C67.5244 70.4297 65.6682 73.1387 65.6682 77.6538ZM81.329 87.01C80.3508 87.01 79.523 86.2073 79.523 85.2541C79.523 84.2759 80.3508 83.4732 81.329 83.4732C82.2822 83.4732 83.1099 84.2759 83.1099 85.2541C83.1099 86.2073 82.2822 87.01 81.329 87.01ZM91.0836 87.01C87.3712 87.01 84.9632 84.6521 84.9632 81.0401H87.3963C87.3963 83.3729 88.8261 84.8026 91.1338 84.8026C93.592 84.8026 95.1722 83.1722 95.1722 80.714C95.1722 78.3812 93.6923 76.6505 91.1588 76.6505C89.6287 76.6505 88.2241 77.3779 87.3963 78.4063L85.3144 77.8796L87.5217 68.5735H96.602V70.8311H89.3027L88.0986 75.6471C89.0518 74.9197 90.2558 74.5434 91.6104 74.5434C95.2976 74.5434 97.6806 77.127 97.6806 80.6137C97.6806 84.3762 94.9966 87.01 91.0836 87.01ZM112.827 83.0468H110.669V86.709H108.312V83.0468H98.9303V80.8645L107.484 68.5735H110.669V80.8645H112.827V83.0468ZM101.589 80.8645H108.312V71.1822L101.589 80.8645ZM120.577 87.01C116.865 87.01 114.457 84.6521 114.457 81.0401H116.89C116.89 83.3729 118.32 84.8026 120.628 84.8026C123.086 84.8026 124.666 83.1722 124.666 80.714C124.666 78.3812 123.186 76.6505 120.653 76.6505C119.123 76.6505 117.718 77.3779 116.89 78.4063L114.808 77.8796L117.016 68.5735H126.096V70.8311H118.796L117.592 75.6471C118.546 74.9197 119.75 74.5434 121.104 74.5434C124.791 74.5434 127.174 77.127 127.174 80.6137C127.174 84.3762 124.49 87.01 120.577 87.01Z" fill="#202020"/>
<path d="M21.3383 116.261H24.6744V112.925H25.9453V116.261H29.2814V117.532H25.9453V120.884H24.6744V117.532H21.3383V116.261ZM33.2078 112.163H30.7931V110.765H34.7011V122.25H33.2078V112.163ZM36.4845 116.516C36.4845 112.957 38.3273 110.542 41.2186 110.542C44.094 110.542 45.9368 112.957 45.9368 116.516C45.9368 120.09 44.1735 122.457 41.2186 122.457C38.2479 122.457 36.4845 120.09 36.4845 116.516ZM38.0255 116.516C38.0255 119.343 39.2011 121.059 41.2186 121.059C43.2362 121.059 44.3959 119.343 44.3959 116.516C44.3959 113.656 43.2362 111.94 41.2186 111.94C39.2011 111.94 38.0255 113.656 38.0255 116.516ZM55.7444 119.931H54.3782V122.25H52.8849V119.931H46.9434V118.549L52.3606 110.765H54.3782V118.549H55.7444V119.931ZM48.6273 118.549H52.8849V112.417L48.6273 118.549ZM59.0764 110.765V117.278L64.1918 110.765H66.0505L62.206 115.642L66.114 122.25H64.303L61.1734 116.96L59.0764 119.613V122.25H57.5196V110.765H59.0764Z" fill="#202020"/>
<path d="M91.3152 115.75C91.3152 111.132 87.5717 107.389 82.954 107.389C78.3362 107.389 74.5928 111.132 74.5928 115.75C74.5928 120.368 78.3362 124.111 82.954 124.111C87.5717 124.111 91.3152 120.368 91.3152 115.75Z" fill="#319cff26" fill-opacity="0.2"/>
<path d="M79.4004 118.886L85.6713 112.615M85.6713 112.615H81.4907M85.6713 112.615V116.795" stroke="#319cff" stroke-width="1.04515" stroke-linecap="round" stroke-linejoin="round"/>
<path d="M20.0674 145.485V220.736" stroke="#040a18" stroke-width="4.1806" stroke-linecap="round"/>
<path d="M43.4785 145.485V220.736" stroke="#040a18" stroke-width="4.1806" stroke-linecap="round"/>
<path d="M66.8906 145.485V220.736" stroke="#040a18" stroke-width="4.1806" stroke-linecap="round"/>
<path d="M90.3018 145.485V220.736" stroke="#040a18" stroke-width="4.1806" stroke-linecap="round"/>
<path d="M113.713 145.485V220.736" stroke="#040a18" stroke-width="4.1806" stroke-linecap="round"/>
<path d="M137.124 145.485V220.736" stroke="#040a18" stroke-width="4.1806" stroke-linecap="round"/>
<path d="M160.536 145.485V220.736" stroke="#040a18" stroke-width="4.1806" stroke-linecap="round"/>
<path d="M183.947 145.485V220.736" stroke="#040a18" stroke-width="4.1806" stroke-linecap="round"/>
<path d="M20.0674 201.505V220.736" stroke="#319cff" stroke-width="4.1806" stroke-linecap="round"/>
<path d="M43.4785 210.703V220.736" stroke="#319cff" stroke-width="4.1806" stroke-linecap="round"/>
<path d="M66.8906 201.505V220.736" stroke="#319cff" stroke-width="4.1806" stroke-linecap="round"/>
<path d="M90.3018 186.455V220.736" stroke="#319cff" stroke-width="4.1806" stroke-linecap="round"/>
<path d="M113.713 201.505V220.736" stroke="#319cff" stroke-width="4.1806" stroke-linecap="round"/>
<path d="M137.124 210.703V220.736" stroke="#319cff" stroke-width="4.1806" stroke-linecap="round"/>
<path d="M160.536 201.505V220.736" stroke="#319cff" stroke-width="4.1806" stroke-linecap="round"/>
<path d="M183.947 166.388V220.736" stroke="#319cff" stroke-width="4.1806" stroke-linecap="round"/>
</g>
<defs>
<clipPath id="clip0_847_64">
<rect width="210" height="250" fill="white"/>
</clipPath>
</defs>
</svg>
